# xmcd CD database file generated by Grip 2.95
# 
# Track frame offsets:
#       150
#       13731
#       27732
#       46351
#       61080
#       77300
#       92368
#       111265
#       127396
#       144511
#       162041
#       174813
#       206497
#       219778
#       238627
#       257085
#       272179
# 
# Disc length: 3886 seconds
# 
# Revision: 3
# Processed by: cddbd v1.4b41PL1 Copyright (c) Steve Scherf et al.
# Submitted via: Grip 2.95
# 
DISCID=e20f2c11
DTITLE=Tim Williams - Evenings Among  Friends
DYEAR=1900
DGENRE=
TTITLE0=Drop Down Mama
TTITLE1=Sportin' Life Blues
TTITLE2=Mojo Hand
TTITLE3=Pallet on the Floor
TTITLE4=In the Evening When the Sun Goes Down
TTITLE5=Kanas City Blues
TTITLE6=Slide Guitar Rag
TTITLE7=I Want to Thank You, Baby
TTITLE8=The Arms I Crave
TTITLE9=Let Your Shoe Leather Do the Talking
TTITLE10=Summerland
TTITLE11=My Babe
TTITLE12=Black Cat Bone
TTITLE13=Leaving Here Laughin
TTITLE14=Plane Wreck at Los Gatos (Deportee)
TTITLE15=When the Levee Breaks
TTITLE16=No Expectations
EXTD=
EXTT0=
EXTT1=
EXTT2=
EXTT3=
EXTT4=
EXTT5=
EXTT6=
EXTT7=
EXTT8=
EXTT9=
EXTT10=
EXTT11=
EXTT12=
EXTT13=
EXTT14=
EXTT15=
EXTT16=
PLAYORDER=
